<svg width="243" height="243" viewBox="0 0 243 243" fill="none" xmlns="http://www.w3.org/2000/svg">
<path d="M121.181 242.362C188.107 242.362 242.362 188.107 242.362 121.181C242.362 54.2545 188.107 0 121.181 0C54.2545 0 0 54.2545 0 121.181C0 188.107 54.2545 242.362 121.181 242.362Z" fill="#F8F8F8"/>
<path d="M139.418 98.7397V81.8604H124.67V105.591C121.165 101.175 116.092 98.8324 109.813 98.8324C97.4594 98.8324 88.6953 108.599 88.6953 123.355C88.6953 138.111 97.5521 147.878 109.898 147.878C113.033 147.878 115.864 147.263 118.35 146.083C120.836 144.903 122.96 143.175 124.662 140.959C124.662 143.968 127.097 146.403 130.089 146.403H139.409V129.524C139.409 124.375 138.449 119.782 136.949 116.681C136.19 115.122 136.19 113.15 136.949 111.583C138.449 108.481 139.409 103.889 139.409 98.7397H139.418ZM114.71 135.423C108.254 135.423 103.915 130.636 103.915 123.347C103.915 116.057 108.254 111.271 114.71 111.271C121.165 111.271 125.488 116.057 125.488 123.347C125.488 130.636 121.156 135.423 114.71 135.423Z" fill="#252323"/>
<path d="M139.418 98.7397V81.8604H124.67V105.591C121.165 101.175 116.092 98.8324 109.813 98.8324C97.4594 98.8324 88.6953 108.599 88.6953 123.355C88.6953 138.111 97.5521 147.878 109.898 147.878C113.033 147.878 115.864 147.263 118.35 146.083C120.836 144.903 122.96 143.175 124.662 140.959C124.662 143.968 127.097 146.403 130.089 146.403H139.409V129.524C139.409 124.375 138.449 119.782 136.949 116.681C136.19 115.122 136.19 113.15 136.949 111.583C138.449 108.481 139.409 103.889 139.409 98.7397H139.418ZM114.71 135.423C108.254 135.423 103.915 130.636 103.915 123.347C103.915 116.057 108.254 111.271 114.71 111.271C121.165 111.271 125.488 116.057 125.488 123.347C125.488 130.636 121.156 135.423 114.71 135.423Z" fill="#252323"/>
<path d="M175.949 98.8491C172.579 98.8491 169.587 99.5907 167 100.947C164.43 102.304 162.264 104.276 160.545 106.771C160.545 103.214 157.663 100.315 154.09 100.315H145.789V117.195C145.789 122.344 146.75 126.936 148.25 130.038C149.008 131.597 149.008 133.569 148.25 135.136C146.75 138.237 145.789 142.83 145.789 147.979V164.858H160.536V138.675C163.958 143.833 169.292 147.996 176.034 147.996C188.388 147.996 197.329 138.128 197.329 123.372C197.329 108.616 188.303 98.8491 175.949 98.8491ZM171.34 135.549C164.885 135.549 160.545 130.661 160.545 123.372C160.545 116.082 164.885 111.296 171.34 111.296C177.795 111.296 182.118 116.082 182.118 123.372C182.118 130.661 177.787 135.549 171.34 135.549Z" fill="#252323"/>
<path d="M77.7653 134.496C73.5265 134.496 72.195 131.47 72.195 128.614V112.712H83.6052C85.0041 107.799 87.389 103.577 90.5575 100.265H72.195V87.4476H63.945C60.3466 87.4476 57.4393 90.3549 57.4393 93.9532V100.265H47.9336V112.712H57.4393V130.316C57.4393 137.142 59.091 147.836 74.5883 147.836C75.1276 147.836 75.6501 147.819 76.1642 147.794C76.6782 147.768 77.167 147.726 77.6473 147.676C82.3496 147.246 86.1418 145.83 88.8553 144.204C86.4367 141.111 84.5996 137.42 83.4704 133.274C81.6249 133.956 79.6024 134.487 77.7653 134.487V134.496Z" fill="#252323"/>
</svg>
